<?xml version="1.0" encoding="utf-8"?>
<!-- Generator: Adobe Illustrator 16.0.0, SVG Export Plug-In . SVG Version: 6.00 Build 0)  -->
<!DOCTYPE svg PUBLIC "-//W3C//DTD SVG 1.1//EN" "http://www.w3.org/Graphics/SVG/1.1/DTD/svg11.dtd">
<svg version="1.1" id="Layer_1" xmlns="http://www.w3.org/2000/svg" xmlns:xlink="http://www.w3.org/1999/xlink" x="0px" y="0px"
	 width="511.188px" height="295.016px" viewBox="0 0 511.188 295.016" enable-background="new 0 0 511.188 295.016"
	 xml:space="preserve">
<g>
	<path fill="#FFFFFF" d="M89.326,156.492c21.908,0,35.59-13.308,42.326-23.576V98.81l-27.849,0.041
		c-5.533,8.797-14.229,15.822-25.1,15.822c-4.444,0-8.153-1.147-11.099-3.252c-5.439-3.888-8.268-11.052-8.268-20.36V66.055
		c0-9.31,2.829-16.474,8.268-20.362c2.946-2.107,6.655-3.255,11.099-3.255c10.871,0,19.566,7.179,25.1,15.975l27.849,0.06V24.684
		c-6.225-9.694-16.036-17.666-28.604-22.511H67.604H44.89c-0.011,0.003-0.021,0.008-0.032,0.012L10.675,2.2
		c0,0,8.736,4.068,13.21,13.031C11.2,27.189,4.001,44.36,4,64.665l0.24,28.708c0,30.375,21.896,53.743,48.392,63.119
		C52.632,156.492,76.808,156.492,89.326,156.492z"/>
	<path fill="#FFFFFF" d="M340.159,143.407v3.929v8.779h5.178V1.923h-54.145v132.39c15.117,1.325,30.242,4.016,45.175,8.065
		L340.159,143.407z"/>
	<path fill="#FFFFFF" d="M142.38,13.968v131.344c-4.207,8.17-11.175,10.804-11.175,10.804h11.175h50.542h3.805V101.94h26.284v35.776
		c15.459-2.895,31.027-4.36,46.492-4.36c2.616,0,5.232,0.046,7.854,0.129V1.923h-54.346v59.27h-26.284V2.007h-9.364v0.165h-3.39
		h-41.594h-12.332C131.599,2.965,138.326,6.723,142.38,13.968z"/>
	<path fill="#FFFFFF" d="M492.375,143.571l0.001-128.005c4.383-9.34,13.479-13.558,13.479-13.558h-13.479V1.924h-17.854
		l-30.564-0.001v62.278l-5.534-9.493l-34.19-52.786h-45.058v154.194h4.778h43.639h10.921c0,0-6.692-2.528-10.921-10.319V92.216
		l6.724,12.04l32.212,51.862h3.279h24.719h17.853h11.993C504.368,156.117,496.419,153.115,492.375,143.571z"/>
	<path fill="#FFFFFF" d="M145.607,176.323H67.604H46.086v34.087h21.519h7.265v68.72c-1.945,4.841-4.752,7.834-7.265,9.666
		c-3.115,2.27-5.776,2.759-5.776,2.759h5.776h7.265h41.952v-81.143h28.785L145.607,176.323L145.607,176.323z"/>
	<path fill="#FFFFFF" d="M180.409,204.581l-11.667,4.646l5.066-11.49c1.39-3.15,2.803-6.334,4.221-9.521
		c0.586-1.318,1.172-2.636,1.759-3.953c-1.845-2.705-3.183-4.649-5.379-7.834c-0.023-0.035-0.045-0.068-0.071-0.104h-7.604
		l-0.029,0.104h-15.399c0,0,6.14,2.082,12.323,10.765l-27.585,96.557c-0.102,0.116-0.201,0.235-0.301,0.35
		c-5.193,5.924-9.717,7.454-9.717,7.454h7.789h31.094h6.112l4.594-18.167h22.507l3.98,18.167h42.719l-28.29-98.562
		C204.157,196.045,192.317,199.838,180.409,204.581z M181.893,249.684l6.125-28.032l5.052,28.032H181.893z"/>
	<path fill="#FFFFFF" d="M313.563,191.09v31.775l-4.287-7.094l-24.074-35.854c-4.586-0.243-9.207-0.369-13.743-0.369
		c-7.859,0-15.726,0.381-23.576,1.126v110.878h8.18h29.329h9.546c0,0-4.426-1.496-9.546-7.262v-40.488l5.206,8.995l24.956,38.757
		h35.524V201.79c-9.869-3.44-22.271-7.035-34.728-10.03L313.563,191.09z"/>
	<path fill="#FFFFFF" d="M460.552,271.056l-19.296-44.557l27.715-50.176H425.18l-21.282,45.506v-45.506h-39.229
		c-1.124,1.634-2.028,2.942-2.874,4.177c-0.854,1.244-1.654,2.409-2.574,3.763c0.859,1.923,1.717,3.853,2.574,5.781
		c1.144,2.575,2.28,5.143,3.405,7.695l5.067,11.489l-8.473-3.375v85.7h42.104v-26.473l7.657-11.591l13.476,38.062h14.382h30.018
		h5.094h3.771c0,0-1.505-0.512-3.771-2.074C470.829,286.93,465.111,281.582,460.552,271.056z"/>
	<path fill="#FFFFFF" d="M360.498,173.323c-8.387-3.354-16.823-6.301-25.475-8.897c0-2.768,0-5.54,0-8.308c0-2.927,0-5.854,0-8.78
		c-14.56-3.948-29.186-6.566-43.83-7.872c-4.611-0.41-9.224-0.694-13.835-0.841c-2.618-0.084-5.234-0.131-7.853-0.131
		c-15.513,0-31.03,1.49-46.493,4.452c-6.422,1.23-12.837,2.712-19.238,4.451c0,5.696,0,11.395,0,17.091c0,0,0,0.002,0,0.004
		c-8.577,2.58-16.946,5.506-25.265,8.832c0.777,1.124,1.446,2.096,2.069,3.001c0.023,0.034,0.046,0.068,0.07,0.104
		c1.288,1.871,2.387,3.476,3.806,5.559c0.373,0.55,0.767,1.125,1.195,1.756c-2.394,5.348-4.775,10.701-7.139,16.065
		c11.997-4.775,24.095-8.656,36.607-11.76c0.65-0.161,1.297-0.33,1.95-0.487c-0.009-2.429-0.017-4.858-0.024-7.287
		c17.976-3.91,36.034-5.863,54.418-5.863c4.717,0,9.456,0.132,14.223,0.39c10.839,0.872,18.041,1.725,27.882,3.684
		c1.278,0.254,2.597,0.526,3.981,0.819v0.001c-0.008,2.484,0.01,4.976,0,7.46c10.142,2.438,22.584,5.863,33.53,9.594
		c3.311,1.13,6.489,2.285,9.422,3.452c-2.363-5.364-4.743-10.718-7.138-16.065C356.228,179.524,357.658,177.443,360.498,173.323z
		 M223.538,171.233c-3.392,0.78-5.832-2.194-5.832-9.429c0-0.451,0-0.675,0-1.126c-0.158-4.119,0.908-10.367,5.307-11.84
		c0.17-0.058,0.346-0.107,0.526-0.151c3.018-0.707,5.317,1.738,5.771,7.429c0.054,0.675,0.087,1.386,0.087,2.153
		c0,0.45,0,0.675,0,1.125C229.57,163.672,228.389,170.119,223.538,171.233z M250.838,156.115c0,3.63,0,7.261,0,10.891
		c-1.375,0.111-2.063,0.176-3.437,0.307c-1.641-4.487-2.463-6.725-4.102-11.181c0,4.645,0,6.969,0,11.617
		c-1.513,0.175-2.27,0.267-3.78,0.468c0-4.033,0-8.067,0-12.102c0-3.272,0-6.546,0-9.816c1.447-0.19,2.17-0.282,3.621-0.451
		c1.512,4.118,2.296,6.251,3.764,10.267c0.049,0.132,0.096,0.263,0.145,0.396c0-0.136,0-0.267,0-0.396c0-4.169,0-6.39,0-10.687
		c1.514-0.149,2.273-0.217,3.789-0.342C250.838,148.762,250.838,152.438,250.838,156.115z M278.406,148.133
		c-0.405-0.017-0.737-0.029-1.048-0.039c-0.531-0.02-1.003-0.033-1.696-0.053c0,2.69,0,5.381,0,8.074c0,3.405,0,6.81,0,10.211
		c-1.558-0.04-2.337-0.057-3.895-0.072c0-3.377,0-6.759,0-10.139c0-2.716,0-5.431,0-8.148c-1.1-0.011-1.651-0.014-2.75-0.011
		c0-1.452,0-2.181,0-3.631c3.388-0.006,5.254,0.022,8.34,0.135c0.336,0.015,0.679,0.027,1.048,0.04
		C278.406,145.954,278.406,146.681,278.406,148.133z M299.447,156.115c0,4.037,0,8.078,0,12.113
		c-1.545-0.206-2.32-0.301-3.872-0.479c0-3.683,0-5.524,0-9.207c-1.347-0.156-2.021-0.227-3.369-0.363c0,3.683,0,5.523,0,9.206
		c-1.553-0.156-2.33-0.229-3.884-0.357c0-7.306,0-14.611,0-21.918c1.176,0.1,1.907,0.162,2.869,0.256
		c0.308,0.03,0.634,0.062,1.015,0.103c0,3.631,0,5.449,0,9.08c1.348,0.137,2.022,0.21,3.369,0.366c0-3.633,0-5.449,0-9.082
		c1.552,0.179,2.325,0.274,3.872,0.482C299.447,149.577,299.447,152.846,299.447,156.115z M318.474,171.586
		c-3.397-0.75-5.103-1.09-8.524-1.709c0-4.59,0-9.176,0-13.762c0-2.72,0-5.439,0-8.159c3.382,0.612,5.071,0.949,8.431,1.689
		c0,1.452,0,2.179,0,3.632c-1.829-0.402-2.748-0.595-4.586-0.962c0,1.556,0,2.561,0,3.798c0,0.496,0,1.028,0,1.654
		c1.624,0.319,2.434,0.49,4.052,0.842c0,1.452,0,2.179,0,3.632c-1.617-0.354-2.428-0.521-4.052-0.845
		c0,2.23,0.001,3.345,0.001,5.576c1.874,0.372,2.809,0.567,4.679,0.981C318.474,169.406,318.474,170.133,318.474,171.586z"/>
	<path fill="#FFFFFF" d="M223.538,152.193c-0.185,0.038-0.361,0.121-0.526,0.245c-0.867,0.655-1.421,2.636-1.421,7.367
		c0,0.451,0,0.677,0,1.127c0,5.638,0.785,7.031,1.947,6.792c1.164-0.24,1.951-1.958,1.951-7.594c0-0.451,0-0.675,0-1.126
		c0-1.126-0.034-2.078-0.092-2.887C225.157,152.874,224.468,152.002,223.538,152.193z"/>
</g>
</svg>
