<?xml version="1.0" encoding="utf-8"?>
<!-- Generator: Adobe Illustrator 16.0.0, SVG Export Plug-In . SVG Version: 6.00 Build 0)  -->
<!DOCTYPE svg PUBLIC "-//W3C//DTD SVG 1.1//EN" "http://www.w3.org/Graphics/SVG/1.1/DTD/svg11.dtd">
<svg version="1.1" id="Layer_1" xmlns="http://www.w3.org/2000/svg" xmlns:xlink="http://www.w3.org/1999/xlink" x="0px" y="0px"
	 width="601.24px" height="161.772px" viewBox="2 -33.391 601.24 161.772" enable-background="new 2 -33.391 601.24 161.772"
	 xml:space="preserve">
<g>
	<path fill="#FFFFFF" d="M90.959,124.52c22.046,0,35.815-13.392,42.595-23.727V66.471l-28.025,0.041
		c-5.568,8.853-14.32,15.922-25.259,15.922c-4.472,0-8.204-1.154-11.169-3.273c-5.474-3.913-8.32-11.122-8.32-20.49V33.509
		c0-9.369,2.847-16.578,8.32-20.491c2.965-2.121,6.697-3.275,11.169-3.275c10.939,0,19.69,7.223,25.259,16.076l28.025,0.062V-8.123
		c-6.264-9.757-16.137-17.779-28.785-22.655H69.101H46.242c-0.011,0.004-0.021,0.008-0.033,0.012L11.811-30.75
		c0,0,8.792,4.094,13.294,13.115C12.339-5.603,5.095,11.677,5.094,32.11l0.241,28.891c0,30.566,22.035,54.082,48.698,63.519
		C54.033,124.52,78.362,124.52,90.959,124.52z"/>
	<path fill="#FFFFFF" d="M452.845-31.029H347.247h-29.133v46.145h29.133h9.835v93.032c-2.634,6.552-6.435,10.605-9.835,13.084
		c-4.219,3.075-7.819,3.735-7.819,3.735h7.819h9.835h56.793V15.118h38.968v-46.146H452.845z"/>
	<path fill="#FFFFFF" d="M599.094-31.029H493.496h-29.133v46.145h29.133h9.835v93.032c-2.634,6.552-6.436,10.605-9.835,13.084
		c-4.219,3.075-7.82,3.735-7.82,3.735h7.82h9.835h56.793V15.118h38.968v-46.146H599.094z"/>
	<g>
		<path fill="#FFFFFF" d="M270.516-23.129c12.807,6.843,22.817,16.304,30.022,28.384c7.205,12.084,10.808,25.692,10.808,40.829
			c0,15.284-3.603,29.04-10.808,41.266c-7.205,12.227-17.216,21.8-30.022,28.711c-12.809,6.912-27.22,10.372-43.23,10.372
			c-16.014,0-30.424-3.459-43.231-10.372c-12.811-6.911-22.816-16.484-30.022-28.711c-7.205-12.227-10.808-25.982-10.808-41.266
			c0-15.283,3.603-28.964,10.808-41.047c7.206-12.081,17.211-21.507,30.022-28.275c12.807-6.769,27.217-10.153,43.231-10.153
			C243.295-33.391,257.707-29.969,270.516-23.129z M211.674,13.661c-5.022,3.276-9.027,7.751-12.01,13.428
			c-2.985,5.676-4.475,12.083-4.475,19.214c0,7.133,1.49,13.574,4.475,19.323c2.982,5.752,6.987,10.299,12.01,13.646
			c5.021,3.35,10.442,5.021,16.266,5.021c5.82,0,11.135-1.637,15.938-4.912c4.804-3.274,8.587-7.823,11.354-13.646
			c2.763-5.82,4.148-12.298,4.148-19.432c0-7.13-1.386-13.571-4.148-19.323c-2.767-5.748-6.55-10.225-11.354-13.428
			c-4.803-3.2-10.118-4.803-15.938-4.803C222.116,8.749,216.695,10.386,211.674,13.661z"/>
	</g>
</g>
</svg>
