<?xml version="1.0" encoding="utf-8"?>
<!-- Generator: Adobe Illustrator 16.0.0, SVG Export Plug-In . SVG Version: 6.00 Build 0)  -->
<!DOCTYPE svg PUBLIC "-//W3C//DTD SVG 1.1//EN" "http://www.w3.org/Graphics/SVG/1.1/DTD/svg11.dtd">
<svg version="1.1" id="Layer_1" xmlns="http://www.w3.org/2000/svg" xmlns:xlink="http://www.w3.org/1999/xlink" x="0px" y="0px"
	 width="356.974px" height="343.979px" viewBox="0 0 356.974 343.979" enable-background="new 0 0 356.974 343.979"
	 xml:space="preserve">
<g>
	<path fill="#FFFFFF" d="M228.062,219.999c-47.915,51.805-128.752,54.957-180.556,7.042C-4.296,179.125-7.449,98.288,40.466,46.485
		C88.38-5.318,169.218-8.471,221.021,39.444C272.825,87.358,275.978,168.196,228.062,219.999z M193.624,67.741
		C157.6,34.42,101.386,36.612,68.065,72.637c-33.319,36.024-31.128,92.239,4.896,125.559c36.024,33.32,92.239,31.128,125.559-4.896
		C231.84,157.274,229.648,101.061,193.624,67.741z"/>
	
		<rect x="192.171" y="227.09" transform="matrix(0.7341 0.679 -0.679 0.7341 246.1966 -112.9044)" fill="#FFFFFF" width="150.195" height="61.665"/>
	<circle fill="#FFFFFF" cx="321.831" cy="308.18" r="31.596"/>
</g>
</svg>
